<?xml version="1.0" encoding="us-ascii" standalone="no"?><svg xmlns="http://www.w3.org/2000/svg" xmlns:xlink="http://www.w3.org/1999/xlink" contentStyleType="text/css" height="496px" preserveAspectRatio="none" style="width:736px;height:496px;background:#FFFFFF;" version="1.1" viewBox="0 0 736 496" width="736px" zoomAndPan="magnify"><defs/><g><line style="stroke:#181818;stroke-width:0.5;stroke-dasharray:5.0,5.0;" x1="26" x2="26" y1="81.2969" y2="415.4922"/><line style="stroke:#181818;stroke-width:0.5;stroke-dasharray:5.0,5.0;" x1="152.5" x2="152.5" y1="81.2969" y2="415.4922"/><line style="stroke:#181818;stroke-width:0.5;stroke-dasharray:5.0,5.0;" x1="308.5" x2="308.5" y1="81.2969" y2="415.4922"/><line style="stroke:#181818;stroke-width:0.5;stroke-dasharray:5.0,5.0;" x1="470.5" x2="470.5" y1="81.2969" y2="415.4922"/><line style="stroke:#181818;stroke-width:0.5;stroke-dasharray:5.0,5.0;" x1="625" x2="625" y1="81.2969" y2="415.4922"/><line style="stroke:#181818;stroke-width:0.5;stroke-dasharray:5.0,5.0;" x1="716" x2="716" y1="81.2969" y2="415.4922"/><text fill="#000000" font-family="sans-serif" font-size="14" lengthAdjust="spacing" textLength="37" x="5" y="77.9951">client</text><ellipse cx="26.5" cy="13.5" fill="#E2E2F0" rx="8" ry="8" style="stroke:#181818;stroke-width:0.5;"/><path d="M26.5,21.5 L26.5,48.5 M13.5,29.5 L39.5,29.5 M26.5,48.5 L13.5,63.5 M26.5,48.5 L39.5,63.5 " fill="none" style="stroke:#181818;stroke-width:0.5;"/><text fill="#000000" font-family="sans-serif" font-size="14" lengthAdjust="spacing" textLength="37" x="5" y="427.4873">client</text><ellipse cx="26.5" cy="439.2891" fill="#E2E2F0" rx="8" ry="8" style="stroke:#181818;stroke-width:0.5;"/><path d="M26.5,447.2891 L26.5,474.2891 M13.5,455.2891 L39.5,455.2891 M26.5,474.2891 L13.5,489.2891 M26.5,474.2891 L39.5,489.2891 " fill="none" style="stroke:#181818;stroke-width:0.5;"/><rect fill="#E2E2F0" height="30.2969" rx="2.5" ry="2.5" style="stroke:#181818;stroke-width:0.5;" width="136" x="84.5" y="50"/><text fill="#000000" font-family="sans-serif" font-size="14" lengthAdjust="spacing" textLength="122" x="91.5" y="69.9951">outgoing invoices</text><rect fill="#E2E2F0" height="30.2969" rx="2.5" ry="2.5" style="stroke:#181818;stroke-width:0.5;" width="136" x="84.5" y="414.4922"/><text fill="#000000" font-family="sans-serif" font-size="14" lengthAdjust="spacing" textLength="122" x="91.5" y="434.4873">outgoing invoices</text><rect fill="#E2E2F0" height="30.2969" rx="2.5" ry="2.5" style="stroke:#181818;stroke-width:0.5;" width="157" x="230.5" y="50"/><text fill="#000000" font-family="sans-serif" font-size="14" lengthAdjust="spacing" textLength="143" x="237.5" y="69.9951">reconciliation engine</text><rect fill="#E2E2F0" height="30.2969" rx="2.5" ry="2.5" style="stroke:#181818;stroke-width:0.5;" width="157" x="230.5" y="414.4922"/><text fill="#000000" font-family="sans-serif" font-size="14" lengthAdjust="spacing" textLength="143" x="237.5" y="434.4873">reconciliation engine</text><rect fill="#E2E2F0" height="30.2969" rx="2.5" ry="2.5" style="stroke:#181818;stroke-width:0.5;" width="99" x="421.5" y="50"/><text fill="#000000" font-family="sans-serif" font-size="14" lengthAdjust="spacing" textLength="85" x="428.5" y="69.9951">transactions</text><rect fill="#E2E2F0" height="30.2969" rx="2.5" ry="2.5" style="stroke:#181818;stroke-width:0.5;" width="99" x="421.5" y="414.4922"/><text fill="#000000" font-family="sans-serif" font-size="14" lengthAdjust="spacing" textLength="85" x="428.5" y="434.4873">transactions</text><rect fill="#E2E2F0" height="30.2969" rx="2.5" ry="2.5" style="stroke:#181818;stroke-width:0.5;" width="126" x="562" y="50"/><text fill="#000000" font-family="sans-serif" font-size="14" lengthAdjust="spacing" textLength="112" x="569" y="69.9951">payment engine</text><rect fill="#E2E2F0" height="30.2969" rx="2.5" ry="2.5" style="stroke:#181818;stroke-width:0.5;" width="126" x="562" y="414.4922"/><text fill="#000000" font-family="sans-serif" font-size="14" lengthAdjust="spacing" textLength="112" x="569" y="434.4873">payment engine</text><text fill="#000000" font-family="sans-serif" font-size="14" lengthAdjust="spacing" textLength="31" x="698" y="77.9951">user</text><ellipse cx="716.5" cy="13.5" fill="#E2E2F0" rx="8" ry="8" style="stroke:#181818;stroke-width:0.5;"/><path d="M716.5,21.5 L716.5,48.5 M703.5,29.5 L729.5,29.5 M716.5,48.5 L703.5,63.5 M716.5,48.5 L729.5,63.5 " fill="none" style="stroke:#181818;stroke-width:0.5;"/><text fill="#000000" font-family="sans-serif" font-size="14" lengthAdjust="spacing" textLength="31" x="698" y="427.4873">user</text><ellipse cx="716.5" cy="439.2891" fill="#E2E2F0" rx="8" ry="8" style="stroke:#181818;stroke-width:0.5;"/><path d="M716.5,447.2891 L716.5,474.2891 M703.5,455.2891 L729.5,455.2891 M716.5,474.2891 L703.5,489.2891 M716.5,474.2891 L729.5,489.2891 " fill="none" style="stroke:#181818;stroke-width:0.5;"/><polygon fill="#181818" points="140.5,108.4297,150.5,112.4297,140.5,116.4297,144.5,112.4297" style="stroke:#181818;stroke-width:1.0;"/><line style="stroke:#181818;stroke-width:1.0;" x1="26.5" x2="146.5" y1="112.4297" y2="112.4297"/><text fill="#000000" font-family="sans-serif" font-size="13" font-weight="bold" lengthAdjust="spacing" textLength="9" x="33.5" y="107.3638">1</text><text fill="#000000" font-family="sans-serif" font-size="13" lengthAdjust="spacing" textLength="89" x="46.5" y="107.3638">create invoice</text><line style="stroke:#181818;stroke-width:1.0;" x1="307" x2="297" y1="141.5625" y2="137.5625"/><line style="stroke:#181818;stroke-width:1.0;" x1="307" x2="297" y1="141.5625" y2="145.5625"/><line style="stroke:#181818;stroke-width:1.0;" x1="152.5" x2="308" y1="141.5625" y2="141.5625"/><text fill="#000000" font-family="sans-serif" font-size="13" font-weight="bold" lengthAdjust="spacing" textLength="9" x="159.5" y="136.4966">2</text><text fill="#000000" font-family="sans-serif" font-size="13" lengthAdjust="spacing" textLength="97" x="172.5" y="136.4966">invoice created</text><line style="stroke:#181818;stroke-width:1.0;" x1="309" x2="351" y1="170.6953" y2="170.6953"/><line style="stroke:#181818;stroke-width:1.0;" x1="351" x2="351" y1="170.6953" y2="183.6953"/><line style="stroke:#181818;stroke-width:1.0;" x1="310" x2="351" y1="183.6953" y2="183.6953"/><polygon fill="#181818" points="320,179.6953,310,183.6953,320,187.6953,316,183.6953" style="stroke:#181818;stroke-width:1.0;"/><text fill="#000000" font-family="sans-serif" font-size="13" font-weight="bold" lengthAdjust="spacing" textLength="9" x="316" y="165.6294">3</text><text fill="#000000" font-family="sans-serif" font-size="13" lengthAdjust="spacing" textLength="78" x="329" y="165.6294">save invoice</text><polygon fill="#181818" points="636,208.8281,626,212.8281,636,216.8281,632,212.8281" style="stroke:#181818;stroke-width:1.0;"/><line style="stroke:#181818;stroke-width:1.0;" x1="630" x2="715.5" y1="212.8281" y2="212.8281"/><text fill="#000000" font-family="sans-serif" font-size="13" font-weight="bold" lengthAdjust="spacing" textLength="9" x="642" y="207.7622">4</text><text fill="#000000" font-family="sans-serif" font-size="13" lengthAdjust="spacing" textLength="23" x="655" y="207.7622">pay</text><polygon fill="#181818" points="482,237.9609,472,241.9609,482,245.9609,478,241.9609" style="stroke:#181818;stroke-width:1.0;"/><line style="stroke:#181818;stroke-width:1.0;" x1="476" x2="624" y1="241.9609" y2="241.9609"/><text fill="#000000" font-family="sans-serif" font-size="13" font-weight="bold" lengthAdjust="spacing" textLength="9" x="488" y="236.895">5</text><text fill="#000000" font-family="sans-serif" font-size="13" lengthAdjust="spacing" textLength="117" x="501" y="236.895">create transaction</text><line style="stroke:#181818;stroke-width:1.0;" x1="310" x2="320" y1="271.0938" y2="267.0938"/><line style="stroke:#181818;stroke-width:1.0;" x1="310" x2="320" y1="271.0938" y2="275.0938"/><line style="stroke:#181818;stroke-width:1.0;" x1="309" x2="470" y1="271.0938" y2="271.0938"/><text fill="#000000" font-family="sans-serif" font-size="13" font-weight="bold" lengthAdjust="spacing" textLength="9" x="326" y="266.0278">6</text><text fill="#000000" font-family="sans-serif" font-size="13" lengthAdjust="spacing" textLength="125" x="339" y="266.0278">transaction created</text><line style="stroke:#181818;stroke-width:1.0;" x1="309" x2="351" y1="300.2266" y2="300.2266"/><line style="stroke:#181818;stroke-width:1.0;" x1="351" x2="351" y1="300.2266" y2="313.2266"/><line style="stroke:#181818;stroke-width:1.0;" x1="310" x2="351" y1="313.2266" y2="313.2266"/><polygon fill="#181818" points="320,309.2266,310,313.2266,320,317.2266,316,313.2266" style="stroke:#181818;stroke-width:1.0;"/><text fill="#000000" font-family="sans-serif" font-size="13" font-weight="bold" lengthAdjust="spacing" textLength="9" x="316" y="295.1606">7</text><text fill="#000000" font-family="sans-serif" font-size="13" lengthAdjust="spacing" textLength="106" x="329" y="295.1606">save transaction</text><line style="stroke:#181818;stroke-width:1.0;" x1="309" x2="351" y1="342.3594" y2="342.3594"/><line style="stroke:#181818;stroke-width:1.0;" x1="351" x2="351" y1="342.3594" y2="355.3594"/><line style="stroke:#181818;stroke-width:1.0;" x1="310" x2="351" y1="355.3594" y2="355.3594"/><polygon fill="#181818" points="320,351.3594,310,355.3594,320,359.3594,316,355.3594" style="stroke:#181818;stroke-width:1.0;"/><text fill="#000000" font-family="sans-serif" font-size="13" font-weight="bold" lengthAdjust="spacing" textLength="9" x="316" y="337.2935">8</text><text fill="#000000" font-family="sans-serif" font-size="13" lengthAdjust="spacing" textLength="135" x="329" y="337.2935">find matching invoice</text><line style="stroke:#181818;stroke-width:1.0;" x1="309" x2="351" y1="384.4922" y2="384.4922"/><line style="stroke:#181818;stroke-width:1.0;" x1="351" x2="351" y1="384.4922" y2="397.4922"/><line style="stroke:#181818;stroke-width:1.0;" x1="310" x2="351" y1="397.4922" y2="397.4922"/><polygon fill="#181818" points="320,393.4922,310,397.4922,320,401.4922,316,397.4922" style="stroke:#181818;stroke-width:1.0;"/><text fill="#000000" font-family="sans-serif" font-size="13" font-weight="bold" lengthAdjust="spacing" textLength="9" x="316" y="379.4263">9</text><text fill="#000000" font-family="sans-serif" font-size="13" lengthAdjust="spacing" textLength="89" x="329" y="379.4263">save relations</text><!--SRC=[TP113eCm30JlUON5dG_qm5_Su59Bu4I9WzJVrq0gGgjUTzUx8sFH86MvKt8ElOO4VcOITH6JikU8ej25ebDWcO1b3UmfTu0P0bzJYNmGppEZSX0WcLXeJoQw9ZMXP9kps57rjHVnjHX4Mn6fyfMyiHwKq0z60JVmYL3fW-TCwuV1PisgMesCpiI-MXdNysRhtPouEGRWuXxKixsXTdeEDFBVaVQqyHui8ooe_jayz-SuqRn_DBit]--></g></svg>