<?xml version="1.0" encoding="us-ascii" standalone="no"?><svg xmlns="http://www.w3.org/2000/svg" xmlns:xlink="http://www.w3.org/1999/xlink" contentStyleType="text/css" height="582px" preserveAspectRatio="none" style="width:622px;height:582px;background:#FFFFFF;" version="1.1" viewBox="0 0 622 582" width="622px" zoomAndPan="magnify"><defs/><g><text fill="#000000" font-family="sans-serif" font-size="14" font-weight="bold" lengthAdjust="spacing" textLength="68" x="270" y="22.9951">Services</text><!--cluster RabbitMQ--><g id="cluster_RabbitMQ"><path d="M63.2152,271.1674 C66.8856,262.5618 73.3373,262.1511 78.8786,269.3082 C84.5084,260.9278 90.7074,260.2707 96.3093,269.336 C100.4686,261.9033 108.0291,261.0488 112.3186,269.2024 C116.8637,261.758 124.7807,262.1664 129.4678,269.0321 C134.9445,260.5188 142.6858,261.0541 147.777,269.4495 C151.1601,262.2128 157.1951,263.1018 161.5796,268.3417 C165.5703,259.5265 173.6918,258.9311 179.1424,266.8054 C184.8747,257.6699 192.5422,260.2497 197.2524,267.9076 C201.6985,261.0654 207.363,261.0669 212.3537,267.2775 C217.7081,259.6589 225.4086,258.7259 230.7031,267.3452 C237.3207,261.349 243.2613,262.268 247.5413,270.176 C250.3999,262.5497 257.1869,262.468 261.5809,268.6104 C268.7282,260.9313 274.6914,261.6665 280.4358,270.2381 C285.7451,263.6756 292.0963,263.7566 296.6606,271.1069 C313.3393,277.6119 315.4683,288.3256 301.3694,299.8693 C313.8118,312.2574 313.4299,326.8941 294.5269,332.7616 C289.3732,340.9928 282.1276,338.8295 278.1323,331.538 C275.073,340.0115 267.5801,340.5588 262.6042,333.4476 C257.1253,339.7778 249.3942,338.4028 245.9494,330.9837 C240.8096,339.2921 234.8507,338.7523 229.829,330.8662 C225.3194,341.1575 219.6056,340.6731 212.5615,333.3509 C208.6436,341.9934 201.1961,342.3022 196.5913,333.9983 C190.2014,341.7668 183.6312,340.946 178.4505,332.6341 C173.1248,338.1018 168.8956,337.6866 164.3611,331.6638 C159.1124,340.0704 150.8741,340.2172 145.3374,331.9933 C140.6593,339.9839 133.7535,338.8239 130.1209,330.988 C124.6887,340.3639 119.3648,339.4726 112.9132,332.0311 C107.3455,340.4973 101.5794,340.8556 96.1029,331.9429 C91.9002,340.8174 84.8508,340.7647 79.7379,332.829 C73.843,338.8764 68.226,339.0916 63.8384,331.1196 C54.1434,330.2226 52.2433,324.4269 56.9579,316.669 C46.8974,315.2096 44.4026,307.5748 51.439,300.3379 C45.7376,293.1025 50.3181,287.3424 58.0914,286.6611 C52.3331,279.495 55.1005,273.7457 63.2152,271.1674 " fill="none" style="stroke:#181818;stroke-width:1.0;"/><text fill="#000000" font-family="sans-serif" font-size="14" font-weight="bold" lengthAdjust="spacing" textLength="74" x="141" y="286.982">RabbitMQ</text></g><!--entity Qt--><g id="elem_Qt"><path d="M75,295.9869 L170,295.9869 C175,295.9869 175,309.1353 175,309.1353 C175,309.1353 175,322.2838 170,322.2838 L75,322.2838 C70,322.2838 70,309.1353 70,309.1353 C70,309.1353 70,295.9869 75,295.9869 " fill="#F1F1F1" style="stroke:#181818;stroke-width:0.5;"/><path d="M170,295.9869 C165,295.9869 165,309.1353 165,309.1353 C165,322.2838 170,322.2838 170,322.2838 " fill="none" style="stroke:#181818;stroke-width:0.5;"/><text fill="#000000" font-family="sans-serif" font-size="14" lengthAdjust="spacing" textLength="85" x="75" y="313.982">transactions</text></g><!--entity Qi--><g id="elem_Qi"><path d="M215.5,295.9869 L281.5,295.9869 C286.5,295.9869 286.5,309.1353 286.5,309.1353 C286.5,309.1353 286.5,322.2838 281.5,322.2838 L215.5,322.2838 C210.5,322.2838 210.5,309.1353 210.5,309.1353 C210.5,309.1353 210.5,295.9869 215.5,295.9869 " fill="#F1F1F1" style="stroke:#181818;stroke-width:0.5;"/><path d="M281.5,295.9869 C276.5,295.9869 276.5,309.1353 276.5,309.1353 C276.5,322.2838 281.5,322.2838 281.5,322.2838 " fill="none" style="stroke:#181818;stroke-width:0.5;"/><text fill="#000000" font-family="sans-serif" font-size="14" lengthAdjust="spacing" textLength="56" x="215.5" y="313.982">invoices</text></g><!--entity t--><g id="elem_t"><rect fill="#F1F1F1" height="46.2969" rx="2.5" ry="2.5" style="stroke:#181818;stroke-width:0.5;" width="125" x="7" y="189.9869"/><rect fill="#F1F1F1" height="10" style="stroke:#181818;stroke-width:0.5;" width="15" x="112" y="194.9869"/><rect fill="#F1F1F1" height="2" style="stroke:#181818;stroke-width:0.5;" width="4" x="110" y="196.9869"/><rect fill="#F1F1F1" height="2" style="stroke:#181818;stroke-width:0.5;" width="4" x="110" y="200.9869"/><text fill="#000000" font-family="sans-serif" font-size="14" lengthAdjust="spacing" textLength="85" x="22" y="222.982">transactions</text></g><!--entity r--><g id="elem_r"><rect fill="#F1F1F1" height="46.2969" rx="2.5" ry="2.5" style="stroke:#181818;stroke-width:0.5;" width="96" x="363.5" y="83.9869"/><rect fill="#F1F1F1" height="10" style="stroke:#181818;stroke-width:0.5;" width="15" x="439.5" y="88.9869"/><rect fill="#F1F1F1" height="2" style="stroke:#181818;stroke-width:0.5;" width="4" x="437.5" y="90.9869"/><rect fill="#F1F1F1" height="2" style="stroke:#181818;stroke-width:0.5;" width="4" x="437.5" y="94.9869"/><text fill="#000000" font-family="sans-serif" font-size="14" lengthAdjust="spacing" textLength="56" x="378.5" y="116.982">receipts</text></g><!--entity cc--><g id="elem_cc"><rect fill="#F1F1F1" height="46.2969" rx="2.5" ry="2.5" style="stroke:#181818;stroke-width:0.5;" width="121" x="495" y="83.9869"/><rect fill="#F1F1F1" height="10" style="stroke:#181818;stroke-width:0.5;" width="15" x="596" y="88.9869"/><rect fill="#F1F1F1" height="2" style="stroke:#181818;stroke-width:0.5;" width="4" x="594" y="90.9869"/><rect fill="#F1F1F1" height="2" style="stroke:#181818;stroke-width:0.5;" width="4" x="594" y="94.9869"/><text fill="#000000" font-family="sans-serif" font-size="14" lengthAdjust="spacing" textLength="81" x="510" y="116.982">credit cards</text></g><!--entity pe--><g id="elem_pe"><rect fill="#F1F1F1" height="46.2969" rx="2.5" ry="2.5" style="stroke:#181818;stroke-width:0.5;" width="160" x="168.5" y="83.9869"/><rect fill="#F1F1F1" height="10" style="stroke:#181818;stroke-width:0.5;" width="15" x="308.5" y="88.9869"/><rect fill="#F1F1F1" height="2" style="stroke:#181818;stroke-width:0.5;" width="4" x="306.5" y="90.9869"/><rect fill="#F1F1F1" height="2" style="stroke:#181818;stroke-width:0.5;" width="4" x="306.5" y="94.9869"/><text fill="#000000" font-family="sans-serif" font-size="14" lengthAdjust="spacing" textLength="120" x="183.5" y="116.982">payments engine</text></g><!--entity oi--><g id="elem_oi"><rect fill="#F1F1F1" height="46.2969" rx="2.5" ry="2.5" style="stroke:#181818;stroke-width:0.5;" width="162" x="167.5" y="189.9869"/><rect fill="#F1F1F1" height="10" style="stroke:#181818;stroke-width:0.5;" width="15" x="309.5" y="194.9869"/><rect fill="#F1F1F1" height="2" style="stroke:#181818;stroke-width:0.5;" width="4" x="307.5" y="196.9869"/><rect fill="#F1F1F1" height="2" style="stroke:#181818;stroke-width:0.5;" width="4" x="307.5" y="200.9869"/><text fill="#000000" font-family="sans-serif" font-size="14" lengthAdjust="spacing" textLength="122" x="182.5" y="222.982">outgoing invoices</text></g><!--entity ii--><g id="elem_ii"><rect fill="#F1F1F1" height="46.2969" rx="2.5" ry="2.5" style="stroke:#181818;stroke-width:0.5;" width="163" x="365" y="189.9869"/><rect fill="#F1F1F1" height="10" style="stroke:#181818;stroke-width:0.5;" width="15" x="508" y="194.9869"/><rect fill="#F1F1F1" height="2" style="stroke:#181818;stroke-width:0.5;" width="4" x="506" y="196.9869"/><rect fill="#F1F1F1" height="2" style="stroke:#181818;stroke-width:0.5;" width="4" x="506" y="200.9869"/><text fill="#000000" font-family="sans-serif" font-size="14" lengthAdjust="spacing" textLength="123" x="380" y="222.982">incoming invoices</text></g><!--entity re--><g id="elem_re"><rect fill="#F1F1F1" height="46.2969" rx="2.5" ry="2.5" style="stroke:#181818;stroke-width:0.5;" width="183" x="94" y="381.9869"/><rect fill="#F1F1F1" height="10" style="stroke:#181818;stroke-width:0.5;" width="15" x="257" y="386.9869"/><rect fill="#F1F1F1" height="2" style="stroke:#181818;stroke-width:0.5;" width="4" x="255" y="388.9869"/><rect fill="#F1F1F1" height="2" style="stroke:#181818;stroke-width:0.5;" width="4" x="255" y="392.9869"/><text fill="#000000" font-family="sans-serif" font-size="14" lengthAdjust="spacing" textLength="143" x="109" y="414.982">reconciliation engine</text></g><!--entity db--><g id="elem_db"><path d="M54,497.9869 C54,487.9869 116.5,487.9869 116.5,487.9869 C116.5,487.9869 179,487.9869 179,497.9869 L179,555.8775 C179,565.8775 116.5,565.8775 116.5,565.8775 C116.5,565.8775 54,565.8775 54,555.8775 L54,497.9869 " fill="#F1F1F1" style="stroke:#181818;stroke-width:0.5;"/><path d="M54,497.9869 C54,507.9869 116.5,507.9869 116.5,507.9869 C116.5,507.9869 179,507.9869 179,497.9869 " fill="none" style="stroke:#181818;stroke-width:0.5;"/><text fill="#000000" font-family="sans-serif" font-size="14" lengthAdjust="spacing" textLength="4" x="64" y="524.982">&#160;</text><text fill="#000000" font-family="sans-serif" font-size="14" lengthAdjust="spacing" textLength="81" x="76" y="541.2789">PostgreSQL</text><text fill="#000000" font-family="sans-serif" font-size="14" lengthAdjust="spacing" textLength="4" x="64" y="557.5757">&#160;</text></g><!--entity redis--><g id="elem_redis"><path d="M214,497.9869 C214,487.9869 255.5,487.9869 255.5,487.9869 C255.5,487.9869 297,487.9869 297,497.9869 L297,555.8775 C297,565.8775 255.5,565.8775 255.5,565.8775 C255.5,565.8775 214,565.8775 214,555.8775 L214,497.9869 " fill="#F1F1F1" style="stroke:#181818;stroke-width:0.5;"/><path d="M214,497.9869 C214,507.9869 255.5,507.9869 255.5,507.9869 C255.5,507.9869 297,507.9869 297,497.9869 " fill="none" style="stroke:#181818;stroke-width:0.5;"/><text fill="#000000" font-family="sans-serif" font-size="14" lengthAdjust="spacing" textLength="4" x="224" y="524.982">&#160;</text><text fill="#000000" font-family="sans-serif" font-size="14" lengthAdjust="spacing" textLength="39" x="236" y="541.2789">Redis</text><text fill="#000000" font-family="sans-serif" font-size="14" lengthAdjust="spacing" textLength="4" x="224" y="557.5757">&#160;</text></g><!--entity HTTP--><g id="elem_HTTP"><ellipse cx="321.5" cy="404.9869" fill="#F1F1F1" rx="8" ry="8" style="stroke:#181818;stroke-width:0.5;"/><text fill="#000000" font-family="sans-serif" font-size="14" lengthAdjust="spacing" textLength="37" x="303" y="434.982">HTTP</text></g><!--link re to db--><g id="link_re_db"><path d="M172.84,427.9969 C164.02,443.3369 151.96,464.3169 141.26,482.9269 " fill="none" id="re-to-db" style="stroke:#181818;stroke-width:1.0;"/><polygon fill="#181818" points="138.57,487.5969,146.5206,481.7842,141.0599,483.261,139.5831,477.8003,138.57,487.5969" style="stroke:#181818;stroke-width:1.0;"/></g><!--link re to redis--><g id="link_re_redis"><path d="M198.34,427.9969 C207.29,443.3369 219.53,464.3169 230.38,482.9269 " fill="none" id="re-to-redis" style="stroke:#181818;stroke-width:1.0;"/><polygon fill="#181818" points="233.11,487.5969,232.0101,477.8096,230.5818,483.2832,225.1082,481.8548,233.11,487.5969" style="stroke:#181818;stroke-width:1.0;"/></g><!--link re to HTTP--><g id="link_re_HTTP"><path d="M277.14,404.9869 C287.17,404.9869 297.21,404.9869 307.24,404.9869 " fill="none" id="re-to-HTTP" style="stroke:#181818;stroke-width:1.0;"/><polygon fill="#181818" points="312.49,404.9869,303.49,400.9869,307.49,404.9869,303.49,408.9869,312.49,404.9869" style="stroke:#181818;stroke-width:1.0;"/></g><!--link pe to cc--><g id="link_pe_cc"><path d="M287.64,83.9069 C309.34,72.4469 337.27,59.8269 364,53.9869 C405.68,44.8769 418.7,43.2969 460,53.9869 C480.98,59.4169 502.27,70.5669 519.4,81.2469 " fill="none" id="pe-to-cc" style="stroke:#181818;stroke-width:1.0;"/><polygon fill="#181818" points="523.67,83.9469,518.1976,75.7583,519.4429,81.2764,513.9248,82.5217,523.67,83.9469" style="stroke:#181818;stroke-width:1.0;"/></g><!--link pe to r--><g id="link_pe_r"><path d="M328.73,106.9869 C338.55,106.9869 348.37,106.9869 358.19,106.9869 " fill="none" id="pe-to-r" style="stroke:#181818;stroke-width:1.0;"/><polygon fill="#181818" points="363.32,106.9869,354.32,102.9869,358.32,106.9869,354.32,110.9869,363.32,106.9869" style="stroke:#181818;stroke-width:1.0;"/></g><!--link pe to t--><g id="link_pe_t"><path d="M210.54,130.0469 C181.59,146.8669 141.72,170.0269 111.75,187.4369 " fill="none" id="pe-to-t" style="stroke:#181818;stroke-width:1.0;"/><polygon fill="#181818" points="107.41,189.9669,117.2015,188.9053,111.7335,187.4555,113.1833,181.9876,107.41,189.9669" style="stroke:#181818;stroke-width:1.0;"/></g><!--link pe to ii--><g id="link_pe_ii"><path d="M290.49,130.0469 C322.52,146.8669 366.62,170.0269 399.76,187.4369 " fill="none" id="pe-to-ii" style="stroke:#181818;stroke-width:1.0;"/><polygon fill="#181818" points="404.57,189.9669,398.4656,182.2379,400.1445,187.6399,394.7425,189.3188,404.57,189.9669" style="stroke:#181818;stroke-width:1.0;"/></g><!--link pe to oi--><g id="link_pe_oi"><path d="M248.5,130.0469 C248.5,146.0369 248.5,167.7669 248.5,184.8269 " fill="none" id="pe-to-oi" style="stroke:#181818;stroke-width:1.0;"/><polygon fill="#181818" points="248.5,189.9669,252.5,180.9669,248.5,184.9669,244.5,180.9669,248.5,189.9669" style="stroke:#181818;stroke-width:1.0;"/></g><!--link t to Qt--><g id="link_t_Qt"><path d="M82.06,236.2669 C91.6,253.1869 104.52,276.0969 113.16,291.4169 " fill="none" id="t-to-Qt" style="stroke:#181818;stroke-width:1.0;"/><polygon fill="#181818" points="115.7,295.9169,114.7633,286.1127,113.2439,291.5617,107.7949,290.0423,115.7,295.9169" style="stroke:#181818;stroke-width:1.0;"/></g><!--link ii to Qi--><g id="link_ii_Qi"><path d="M400.08,236.0269 C362.6,253.8169 310.96,278.3369 278.67,293.6669 " fill="none" id="ii-to-Qi" style="stroke:#181818;stroke-width:1.0;"/><polygon fill="#181818" points="274.05,295.8569,283.8958,295.611,278.5669,293.7128,280.4652,288.3839,274.05,295.8569" style="stroke:#181818;stroke-width:1.0;"/></g><!--link oi to Qi--><g id="link_oi_Qi"><path d="M248.5,236.2669 C248.5,252.8969 248.5,275.3069 248.5,290.6269 " fill="none" id="oi-to-Qi" style="stroke:#181818;stroke-width:1.0;"/><polygon fill="#181818" points="248.5,295.9169,252.5,286.9169,248.5,290.9169,244.5,286.9169,248.5,295.9169" style="stroke:#181818;stroke-width:1.0;"/></g><!--link Qt to re--><g id="link_Qt_re"><path d="M130.74,322.2769 C140.08,336.2269 155.61,359.3869 167.74,377.4869 " fill="none" id="Qt-to-re" style="stroke:#181818;stroke-width:1.0;"/><polygon fill="#181818" points="170.75,381.9769,169.0628,372.2736,167.9666,377.8232,162.417,376.727,170.75,381.9769" style="stroke:#181818;stroke-width:1.0;"/></g><!--link Qi to re--><g id="link_Qi_re"><path d="M240.26,322.2769 C230.92,336.2269 215.39,359.3869 203.26,377.4869 " fill="none" id="Qi-to-re" style="stroke:#181818;stroke-width:1.0;"/><polygon fill="#181818" points="200.25,381.9769,208.583,376.727,203.0334,377.8232,201.9372,372.2736,200.25,381.9769" style="stroke:#181818;stroke-width:1.0;"/></g><!--SRC=[RP0nRiCm34LtdeBmr0wvGkOEBH0b6RF8Cc4GS4XNeWCKHUzUMNPgDUta9_y7YVp6DX2UADuuK088UXrLI0mRYrwI3yOggK6VqEeqKY0URKbYdOH87Hi67xib3Q6EH_znpP2Gf6UXOenK6pfPhomzijnq7giuohN3aWz_7EQ74LK23-pd7Uht8a7dpRS-4JONGSI39kiZdTnhFboaM5txQ1tpPcaJvaKJHCBTRZ_RAss_z_ZqZ2_dyo4NE-ZKuT6tBTkRmqz0V9zeedzwThQ5lzPp35y0Oxaubxf0BDyCTeVSmagvCx12-KxcXHZqXvoj4uFZEtq3]--></g></svg>